<svg width="1080" height="915" viewBox="0 0 1080 915" fill="none" xmlns="http://www.w3.org/2000/svg">
<path fill-rule="evenodd" clip-rule="evenodd" d="M572.813 201.112C572.813 201.112 537.857 102.671 517.215 65.0533C496.162 26.6877 455.49 0.205703 412.198 0.116028C361.851 0.0139833 309.358 10.8245 267.027 123.806C208.168 280.892 1.39478 801.009 1.39478 801.009C1.39478 801.009 -15.2227 892.833 66.2584 912.33C135.798 928.972 166.871 850.058 183.631 801.009C204.606 739.625 223.784 689.688 223.784 689.688H470.884C470.884 689.688 476.537 679.248 452.352 643.304C434.094 616.533 419.547 587.406 409.109 556.721C406.598 549.207 270.116 553.629 270.116 553.629L402.932 188.743L433.819 262.957C433.819 262.957 467.357 191.338 572.813 201.112ZM439.997 287.695L535.748 553.629H424.553C424.553 553.629 465.136 626.213 477.062 649.489C494.176 682.903 490.606 719.871 517.215 736.072C530.018 743.87 548.103 736.072 548.103 736.072C548.103 736.072 577.004 736.641 578.99 736.072C586.99 733.783 582.928 727.556 591.345 723.703C599.123 720.143 614.696 723.616 619.144 720.61C634.387 710.313 632.228 678.002 625.321 668.042C599.75 631.17 584.136 620.455 578.99 593.828C573.844 567.201 573.755 539.871 566.635 528.891C558.5 516.346 548.103 497.968 548.103 497.968L572.813 454.677C572.813 454.677 624.145 513.482 634.588 525.799C642.05 534.605 637.676 673.886 637.676 702.057C637.676 736.631 644.11 739.25 643.854 748.441C642.838 784.691 645.194 765.844 643.854 773.179C642.192 782.261 641.346 804.259 640.765 819.766C639.443 854.319 640.765 850.302 637.676 872.131C634.588 893.959 627.638 912.16 640.765 912.33C659.298 912.574 736.516 912.33 736.516 912.33C736.516 912.33 745.783 905.975 736.516 887.592C727.25 869.208 715.538 876.46 721.073 841.208C723.726 824.303 733.196 814.228 733.428 788.64C733.492 781.218 733.428 754.625 733.428 754.625L782.847 664.95C782.847 664.95 818.587 735.707 819.912 745.348C822.21 762.077 817.812 780.427 816.824 788.64C814.513 807.787 828.734 824.55 829.179 844.3C829.951 878.745 820.299 869.898 819.912 878.315C819.227 893.226 816.564 907.005 838.445 906.145C867.263 905.017 977.052 909.238 977.438 906.145C979.177 892.205 967.156 873.058 955.817 872.131C922.057 869.4 906.011 852.891 903.309 844.3C896.303 822.036 909.06 770.705 909.486 757.717C910.703 720.514 918.752 699.694 921.841 680.411C927.052 647.871 921.841 629.732 921.841 600.013C921.841 570.293 928.019 544.182 931.107 516.522C934.196 488.862 943.462 476.323 943.462 476.323C943.462 476.323 952.728 466.876 952.728 491.784C952.728 516.692 941.461 523.173 944.837 548.499C953.674 614.75 947.87 617.731 949.64 627.843C958.813 680.241 950.668 665.809 946.551 677.319C942.434 688.828 943.388 707.876 952.728 711.334C982.313 722.289 972.154 729.392 989.793 729.887C1014.24 730.577 1020.51 721.501 1029.95 708.241C1042.37 690.789 1042.3 685.393 1057.75 637.12C1073.19 588.846 1082.59 580.176 1079.37 507.245C1077.42 463.224 1080.1 453.307 1076.32 431.943C1071.55 404.864 1067.12 393.364 1073.19 349.54C1082.53 282.049 1052.6 249.97 1042.3 238.219C1016.21 208.438 933.421 216.36 931.135 213.432C920.142 199.34 876.029 175.601 875.51 176.374C875.51 176.374 866.176 148.334 872.421 142.36C878.846 136.215 881.944 121.979 878.599 108.345C875.723 96.6313 866.775 85.9662 866.244 74.33C864.576 37.9188 856.823 52.6843 852.548 34.7492L860.066 6.30053C860.066 6.30053 858.784 -3.70909 847.711 3.20828C829.45 14.6156 826.09 21.7618 826.09 21.7618H773.581C773.581 21.7618 753.875 -1.84755 745.783 0.116028C738.892 1.78893 734.434 11.7243 733.428 46.4998C732.967 62.3259 726.91 67.7281 717.984 89.7913L687.096 151.636L674.741 170.19C669.701 166.123 594.925 203.317 591.345 216.574C590.57 219.44 525.923 213.222 492.283 231.701C451.601 254.052 439.941 287.615 439.997 287.695Z" fill="#0D6BB3"/>
</svg>
